
<svg width="14px" height="14px" viewBox="0 0 14 14" version="1.1" xmlns="http://www.w3.org/2000/svg" xmlns:xlink="http://www.w3.org/1999/xlink">
    <!-- Generator: Sketch 51.2 (57519) - http://www.bohemiancoding.com/sketch -->
    <desc>Created with Sketch.</desc>
    <defs></defs>
    <g id="Symbols" stroke="none" stroke-width="1" fill="none" fill-rule="evenodd">
        <g id="Property" transform="translate(-169.000000, -197.000000)" fill="#949494">
            <g id="Group">
                <g id="Group-8" transform="translate(13.000000, 197.000000)">
                    <g id="Group-4" transform="translate(156.000000, 0.000000)">
                        <path d="M13.1752295,8.88673596 L13.1752295,11.2726597 C13.1752295,12.0823083 12.6223211,12.7611243 11.8845498,12.9582206 L12.242221,13.5818783 C12.3182396,13.713232 12.274488,13.8881898 12.144874,13.9648948 C12.0147126,14.0416097 11.8522912,13.986971 11.7762684,13.8556174 L11.2884344,13.0128651 L2.59117289,13.0128651 L2.11372724,13.8556174 C2.03770863,13.986971 1.86435002,14.0416083 1.73418721,13.9648948 C1.6040258,13.8881799 1.5608188,13.7132334 1.63684021,13.5818783 L2.01638024,12.9361514 C1.32237473,12.7065591 0.812657884,12.0497981 0.812657884,11.2727728 L0.812657884,8.88684899 L13.1758147,8.88684899 L13.1752295,8.88673596 Z M10.4643093,4.37768337 C10.4643093,4.22425916 10.5835321,4.10393864 10.7355693,4.10393864 C10.8876066,4.10393864 11.0068294,4.22425351 11.0068294,4.37768337 L11.0068294,5.41747536 C11.0068294,5.57089957 10.8876066,5.6912201 10.7355693,5.6912201 C10.5835321,5.6912201 10.4643093,5.57090522 10.4643093,5.41747536 L10.4643093,4.37768337 Z M9.184578,4.37768337 C9.184578,4.22425916 9.31473941,4.10393864 9.45583803,4.10393864 C9.60786965,4.10393864 9.73803246,4.22425351 9.73803246,4.37768337 L9.73803246,5.41747536 C9.73803246,5.57089957 9.60787105,5.6912201 9.45583803,5.6912201 C9.31474081,5.6912201 9.184578,5.57090522 9.184578,5.41747536 L9.184578,4.37768337 Z M7.9048467,4.37768337 C7.9048467,4.22425916 8.03500811,4.10393864 8.18704113,4.10393864 C8.32813835,4.10393864 8.45830116,4.22425351 8.45830116,4.37768337 L8.45830116,5.41747536 C8.45830116,5.57089957 8.32813975,5.6912201 8.18704113,5.6912201 C8.03500951,5.6912201 7.9048467,5.57090522 7.9048467,5.41747536 L7.9048467,4.37768337 Z M9.75935525,1.56521233 C10.0628865,1.63088846 10.3450809,1.78432115 10.5512525,2.00287894 C10.833447,2.28765824 11.0068154,2.67068893 11.0068154,3.10834141 C11.0068154,3.26176562 10.8875926,3.38208614 10.7355553,3.38208614 L8.18704113,3.38208614 C8.03500951,3.38208614 7.9048467,3.26177127 7.9048467,3.10834141 C7.9048467,2.33125959 8.46868954,1.68557524 9.20646081,1.5651982 C9.26060361,1.16009839 9.44490363,0.810185506 9.71616365,0.536454903 C10.0415637,0.208074254 10.4971265,0 10.9849606,0 C11.483729,0 11.9283574,0.208074254 12.2537575,0.536454903 C12.5791575,0.864835551 12.7853431,1.31353672 12.7853431,1.81687381 L12.7853431,7.23440569 L13.4470916,7.23440569 C13.7506228,7.23440569 14,7.48606717 14,7.7923787 C14,8.08764153 13.7506228,8.33931714 13.4470916,8.33931714 L0.541973979,8.33931714 C0.249391164,8.33931714 0,8.08765566 0,7.7923787 C0,7.48606717 0.249377163,7.23440569 0.541973979,7.23440569 L12.2433271,7.23440569 L12.2433271,1.81687381 C12.2433271,1.46640991 12.1022299,1.14906382 11.8747214,0.919471468 C11.647213,0.689879112 11.3327474,0.547489465 10.9854646,0.547489465 C10.6381817,0.547489465 10.3237161,0.689879112 10.1071561,0.919471468 L10.0962175,0.919471468 C9.9337835,1.09442791 9.80363469,1.32457129 9.75988307,1.5651982 L9.75935525,1.56521233 Z" id="Fill-1"></path>
                    </g>
                </g>
            </g>
        </g>
    </g>
</svg>