<?xml version="1.0" encoding="UTF-8"?>
<svg fill="#7C827B" width="100pt" height="100pt" version="1.1" viewBox="0 0 100 100" xmlns="http://www.w3.org/2000/svg">
 <g>
  <path d="m7.6094 70.391c0.41016 0.71484 1.1758 1.1562 2 1.1562h5.2344v10.516c0 6.1055 4.9688 11.074 11.078 11.074h11.555v4.5c0 1.2773 1.0352 2.3125 2.3125 2.3125 1.2773 0 2.3125-1.0352 2.3125-2.3125v-4.5h5.4648c1.2773 0 2.3125-1.0352 2.3125-2.3125 0-1.2773-1.0352-2.3125-2.3125-2.3125h-21.648c-3.5547 0-6.4531-2.8945-6.4531-6.4453l0.003906-12.832c0-1.2734-1.0352-2.3125-2.3125-2.3125h-3.5391l8.5-14.723c0.21484-0.37109 0.32031-0.78906 0.3125-1.2188l-0.019532-0.42578c-0.011718-0.33203-0.023437-0.65625-0.023437-0.98438 0-16.645 13.539-30.188 30.18-30.188 16.645 0 30.191 13.539 30.191 30.188 0 7.9883-3.0938 15.504-8.6992 21.18l-5.1367 3.457c-1.0625 0.71094-1.3398 2.1484-0.62891 3.207 0.44531 0.66406 1.1797 1.0234 1.9219 1.0234 0.44141 0 0.89453-0.125 1.2891-0.39062l1.7578-1.1797v20.77c0 1.2773 1.0352 2.3125 2.3125 2.3125 1.2773 0 2.3125-1.0352 2.3125-2.3125v-24.176c6.1328-6.4805 9.5-14.926 9.5-23.887 0-19.195-15.621-34.812-34.816-34.812-19.191 0-34.805 15.617-34.805 34.812 0 0.29688 0.007813 0.59375 0.019531 0.89062l-10.176 17.613c-0.41406 0.71484-0.41406 1.5977 0 2.3125z"/>
  <path d="m71.023 51.676c4.3984-1.0977 7.582-5.1055 7.582-9.8906 0-4.8867-3.3633-8.9805-7.8398-9.9727-0.9375-4.6367-4.9453-8.1328-9.7344-8.1328-3.0742 0-5.8281 1.4414-7.6562 3.7031-0.18359-0.22656-0.33984-0.47266-0.54297-0.68359-1.8789-1.9492-4.3867-3.0234-7.0586-3.0234-4.7852 0.003907-8.793 3.5-9.7305 8.1328-4.4727 0.99219-7.8359 5.0898-7.8359 9.9727-0.003906 4.7812 3.1797 8.793 7.5781 9.8906 1.7266 3.2344 5.0742 5.3359 8.7109 5.3359 3.7266 0 6.8945-2.1016 8.9102-4.957 2.0117 2.8516 5.1797 4.957 8.9062 4.957 3.6406 0.003907 6.9883-2.1016 8.7109-5.332zm-26.527 0.71094c-1.6367 0-3.1328-0.77344-4.125-2.0664 0.058594-0.20312 0.085937-0.41797 0.085937-0.63672 0-1.2773-1.0312-2.3125-2.3125-2.3125-0.17969 0-0.35938-0.011719-0.53516-0.023438-2.7266-0.28906-4.7852-2.6758-4.7812-5.5625 0-2.3555 1.3945-4.3711 3.3594-5.1914 0.51953 1.9297 1.582 3.6836 3.0938 5.0195 0.95312 0.84766 2.418 0.75781 3.2656-0.19531s0.75781-2.418-0.19922-3.2656c-1.2031-1.0625-1.8906-2.6172-1.8906-4.2617 0-3.082 2.3867-5.5859 5.3164-5.5859 1.4062 0 2.7305 0.57031 3.7305 1.6094 1.0234 1.0586 1.582 2.4688 1.582 3.9805v8.0508c-0.72266-1.1602-1.707-3.4375-2.2227-4.7578-0.46094-1.1875-1.8008-1.7773-2.9922-1.3164-1.1875 0.46094-1.7812 1.8008-1.3164 2.9883 0.16016 0.41797 0.69922 1.7734 1.375 3.1992-0.73047 0.3125-1.4844 0.77734-2.2617 1.4883-0.94141 0.86328-1.0039 2.3281-0.14062 3.2656 0.45703 0.5 1.0781 0.75 1.7031 0.75 0.55859 0 1.1211-0.19922 1.5664-0.60938 0.61328-0.5625 1.0898-0.75781 1.7656-0.82812 0.61719 0.60547 1.3242 1.207 1.9453 1.6992-1.0234 2.4219-3.3203 4.5625-6.0117 4.5625zm21.941-2.0625c-0.98828 1.2891-2.4883 2.0664-4.1289 2.0664-2.6914 0-4.9883-2.1406-6.0156-4.5664 0.62109-0.49609 1.332-1.0938 1.9453-1.6992 0.67578 0.070312 1.1562 0.26953 1.7695 0.83203 0.44531 0.40234 1.0039 0.60156 1.5586 0.60156 0.625 0 1.25-0.25 1.707-0.75 0.86328-0.94141 0.80078-2.4062-0.14453-3.2656-0.77344-0.71094-1.5273-1.1758-2.2617-1.4883 0.67187-1.4219 1.2148-2.7852 1.375-3.1992 0.46094-1.1914-0.12891-2.5273-1.3203-2.9922-1.1875-0.45703-2.5273 0.13281-2.9883 1.3203-0.51172 1.3203-1.4961 3.5898-2.2188 4.7578v-8.0508c0-3.082 2.3828-5.5859 5.3164-5.5859s5.3164 2.5039 5.3164 5.5859c0 1.6445-0.6875 3.1992-1.8906 4.2617-0.95312 0.84766-1.0391 2.3125-0.19531 3.2656 0.84766 0.95312 2.3086 1.043 3.2656 0.19531 1.5078-1.3398 2.5742-3.0898 3.0938-5.0195 1.9688 0.82031 3.3633 2.8359 3.3633 5.1914 0 2.8906-2.0586 5.2734-4.7852 5.5625-0.1875 0.015625-0.375 0.027344-0.56641 0.027344-1.2773 0.019531-2.3008 1.0664-2.2812 2.3477 0 0.20703 0.027344 0.40625 0.085938 0.60156z"/>
  <path d="m54.395 6.9961v-4.418c0-1.2773-1.0352-2.3125-2.3125-2.3125-1.2773 0-2.3125 1.0352-2.3125 2.3125v4.418c0 1.2773 1.0352 2.3125 2.3125 2.3125 1.2773 0.003906 2.3125-1.0352 2.3125-2.3125z"/>
  <path d="m67.863 12.523c0.88672 0 1.7305-0.51172 2.1133-1.375l1.7969-4.0352c0.51953-1.1641-0.007813-2.5312-1.1719-3.0508-1.168-0.51953-2.5312 0.007812-3.0508 1.1719l-1.793 4.0312c-0.51953 1.168 0.007813 2.5312 1.1719 3.0547 0.30078 0.14063 0.61719 0.20313 0.93359 0.20313z"/>
  <path d="m82.535 21.281 3.2773-2.9648c0.94531-0.85547 1.0234-2.3164 0.16797-3.2656-0.85547-0.94531-2.3164-1.0234-3.2656-0.16797l-3.2812 2.9648c-0.94531 0.85547-1.0234 2.3164-0.16406 3.2656 0.45703 0.50391 1.0859 0.76172 1.7188 0.76172 0.55078 0.003906 1.1016-0.19531 1.5469-0.59375z"/>
  <path d="m89.176 35.746c0.23828 0 0.48047-0.035156 0.71875-0.11328l4.1953-1.375c1.2148-0.39844 1.875-1.7031 1.4805-2.9141-0.39453-1.2109-1.7031-1.875-2.918-1.4805l-4.1953 1.3711c-1.2148 0.39844-1.875 1.7031-1.4805 2.918 0.32031 0.97656 1.2266 1.5938 2.1992 1.5938z"/>
  <path d="m16.004 32.191-4.2148-1.3281c-1.2188-0.38672-2.5156 0.29297-2.8984 1.5117-0.38281 1.2148 0.29297 2.5195 1.5078 2.9023l4.2148 1.3281c0.23047 0.070312 0.46484 0.10547 0.69531 0.10547 0.98438 0 1.8945-0.62891 2.207-1.6172 0.38281-1.2227-0.29688-2.5195-1.5117-2.9023z"/>
  <path d="m21.602 22.051c0.44141 0.39062 0.98438 0.57812 1.5312 0.57812 0.64063 0 1.2773-0.26562 1.7344-0.77734 0.84766-0.96094 0.75781-2.418-0.20313-3.2656l-3.3086-2.9258c-0.95703-0.84766-2.418-0.75391-3.2656 0.20312-0.84375 0.95312-0.75781 2.4141 0.19922 3.2617z"/>
  <path d="m36.008 12.941c0.32031 0 0.64844-0.066406 0.96094-0.21094 1.1641-0.53125 1.6719-1.9023 1.1406-3.0664l-1.8398-4.0156c-0.53125-1.1641-1.9023-1.6719-3.0625-1.1406-1.1641 0.53125-1.6719 1.9023-1.1406 3.0664l1.8398 4.0195c0.38672 0.84766 1.2227 1.3477 2.1016 1.3477z"/>
 </g>
</svg>
