<?xml version="1.0" encoding="UTF-8"?>
<svg fill="#7C827B" width="100pt" height="100pt" version="1.1" viewBox="0 0 100 100" xmlns="http://www.w3.org/2000/svg">
 <g>
  <path d="m70.066 49.402c-10.324 4.7031-14.805 17.078-9.9766 27.672s17.105 15.34 27.43 10.637c10.297-4.6914 14.766-17.07 9.9375-27.664-4.8164-10.59-17.094-15.332-27.391-10.645m15.066 33.09c-7.5039 3.418-16.43-0.039063-19.938-7.7422-3.5039-7.6914-0.25781-16.699 7.2422-20.117 7.4883-3.4102 16.43 0.039063 19.938 7.7305 3.5078 7.707 0.24609 16.719-7.2422 20.129"/>
  <path d="m11.961 49.414c-10.289 4.6875-14.766 17.07-9.9414 27.652 4.8242 10.59 17.105 15.34 27.395 10.648 10.332-4.7109 14.797-17.09 9.9727-27.68-4.8242-10.578-17.094-15.328-27.426-10.621m15.082 33.082c-7.4922 3.4141-16.422-0.050782-19.926-7.7539-3.5-7.6836-0.26172-16.695 7.2305-20.109 7.5078-3.4219 16.445 0.039063 19.945 7.7266 3.5078 7.6992 0.25781 16.715-7.25 20.137"/>
  <path d="m72.957 24.77c4.4023 0.42188 8.3242-2.8789 8.7578-7.3984 0.43359-4.5117-2.793-8.5195-7.1953-8.9414-4.3945-0.42188-8.332 2.9062-8.7617 7.418-0.42969 4.5156 2.8047 8.5039 7.1992 8.9219"/>
  <path d="m81.512 38.629l-15.387-0.32422s-0.37891-16.172-0.38281-16.25c-0.15234-3.0195-4.3789-4.4414-5.7148-4.6523-0.9375-0.14844-23.066-3.4492-35.84 14.188-1.625 2.2422-1.8516 5.1133-0.36719 7.2734 0.59375 1.1562 2.582 2.4922 3.4102 2.8359s20.387 8.4766 20.387 8.4766l-2.2266 19.91c-0.36719 2.2695 0.96484 4.4531 3.2305 4.8203 2.2695 0.36719 3.6133-1.2227 3.9805-3.4922l3.75-23.152c0.26563-1.6602-0.50391-3.3906-2.0508-4.2656l-0.32422-0.18359-15.602-8.8008c8.2266-6.6016 20.082-5.0273 21.102-4.957l1.0469 11.191 0.011718 0.10156c0.12891 1.4141 1.3047 2.5352 2.7617 2.5664l18.098 0.38281c1.5664 0.03125 2.8594-1.2109 2.8945-2.7734 0.027344-1.5625-1.2148-2.8594-2.7773-2.8945z"/>
 </g>
</svg>
