<svg width="15px" height="13px" viewBox="0 0 15 13" version="1.1" xmlns="http://www.w3.org/2000/svg" xmlns:xlink="http://www.w3.org/1999/xlink">
    <!-- Generator: Sketch 51.2 (57519) - http://www.bohemiancoding.com/sketch -->
    <desc>Created with Sketch.</desc>
    <defs></defs>
    <g id="Symbols" stroke="none" stroke-width="1" fill="none" fill-rule="evenodd">
        <g id="Property" transform="translate(-13.000000, -198.000000)" fill="#D1D1D1">
            <g id="Group">
                <g id="Group-8" transform="translate(13.000000, 197.000000)">
                    <g id="Group-7">
                        <g id="Group-5" transform="translate(0.000000, 1.000000)">
                            <path d="M3,7 C1.34734478,7 0,8.34740895 0,10 C0,11.6526552 1.34740895,13 3,13 C4.65259105,13 6,11.652591 6,10 C5.98433178,8.34798652 4.65259105,7 3,7 Z M3,12.1984598 C1.7967271,12.1984598 0.802181774,11.2195412 0.802181774,10.0006417 C0.802181774,8.78106851 1.78110059,7.80282368 3,7.80282368 C4.21957324,7.80282368 5.19781807,8.78174234 5.19781807,10.0006417 C5.19781807,11.2195412 4.20324082,12.1984598 3,12.1984598 Z" id="Fill-1"></path>
                            <path d="M12,7 C10.3473448,7 9,8.34740895 9,10 C9,11.6526552 10.347409,13 12,13 C13.652591,13 15,11.652591 15,10 C15,8.34798652 13.652591,7 12,7 Z M12,12.1984598 C10.7967271,12.1984598 9.80218193,11.2195412 9.80218193,10.0006417 C9.80218193,8.78106851 10.7811006,7.80282368 12,7.80282368 C13.2195732,7.80282368 14.1978181,8.78174234 14.1978181,10.0006417 C14.1978181,11.2195412 13.2188994,12.1984598 12,12.1984598 Z" id="Fill-2"></path>
                            <path d="M8.19967357,7.40132787 L6.35967582,6.16778727 C6.79281296,5.66521114 7.31836754,5.04131512 7.70498667,4.49293952 L7.99856977,5.52842176 C8.06018758,5.72648012 8.23054124,5.8632695 8.43170691,5.878739 L10.4886753,6.00066487 L10.5194842,6.00066487 C10.7671679,6.00066487 10.9834272,5.80260651 10.9991394,5.55935772 C11.0148454,5.30063941 10.8136859,5.07225108 10.5509086,5.05678158 L8.8340104,4.95031912 L8.30845582,3.06261344 C7.79799486,2.92581796 7.39628212,2.51423783 7.24163447,2.01227073 C6.94805137,1.9664743 6.60733166,2.04260375 6.25213694,2.34711848 C5.2626394,3.18454236 3.73122557,5.74264392 4.04052088,6.13806025 C4.25678015,6.41224805 4.86027715,6.79289527 5.20037826,6.99095363 L7.04037601,8.22449423 L6.20552613,11.1477126 C6.11249629,11.4980299 6.31365886,11.8632076 6.66946909,11.969667 C6.7310869,11.9851304 6.79330783,12 6.85492255,12 C7.14850565,12 7.42699514,11.8019416 7.50431897,11.5128934 L8.46301069,8.13289833 C8.5554374,7.85811672 8.44730467,7.55359894 8.19963027,7.40134006 L8.19967357,7.40132787 Z" id="Fill-3"></path>
                            <path d="M9,1 C9,1.5526 8.5526,2 8,2 C7.44792,2 7,1.5526 7,1 C7,0.44792 7.44792,0 8,0 C8.5526,0 9,0.44792 9,1" id="Fill-4"></path>
                        </g>
                    </g>
                </g>
            </g>
        </g>
    </g>
</svg>