<svg width="34px" height="24px" viewBox="0 0 34 24" version="1.1" xmlns="http://www.w3.org/2000/svg" xmlns:xlink="http://www.w3.org/1999/xlink">
    <!-- Generator: Sketch 51.3 (57544) - http://www.bohemiancoding.com/sketch -->
    <desc>Created with Sketch.</desc>
    <defs></defs>
    <g id="Page-1" stroke="none" stroke-width="1" fill="none" fill-rule="evenodd">
        <g id="Desktop" transform="translate(-290.000000, -631.000000)" fill="#FFFFFF">
            <path d="M323.97747,646.1223 L318.514301,636.617804 L318.514301,631 L317.070985,631 L317.070985,632.798595 L296.790948,632.798595 L296.790948,631 L295.347631,631 L295.347631,636.747087 L290.045104,646.122084 L290.008458,646.122084 L290.008458,646.186718 L290,646.200769 L290.008458,646.200769 L290.008458,654.991583 L291.451774,654.991583 L291.451774,651.762529 L322.556684,651.762529 L322.556684,655 L324,655 L324,646.122135 L323.97747,646.1223 Z M296.794051,633.517745 L317.074088,633.517745 L317.074088,636.353339 L316.885216,636.353339 C316.761177,635.757557 316.62023,635.209576 316.608958,635.173028 L316.552574,634.936966 L316.315784,634.908865 C316.183295,634.886383 313.262809,634.470454 311.749059,634.470454 C310.29167,634.470454 307.492431,634.886376 307.368378,634.908865 L307.131587,634.936966 L307.075211,635.173028 C307.066753,635.20113 306.987826,635.510265 306.903255,635.914913 C306.815869,635.513042 306.736934,635.195475 306.731298,635.173028 L306.674915,634.936966 L306.438124,634.908865 C306.308449,634.886383 303.385149,634.470454 301.871399,634.470454 C300.414011,634.470454 297.614771,634.886376 297.490718,634.908865 L297.253927,634.936966 L297.197551,635.173028 C297.183457,635.21518 297.053783,635.754759 296.929751,636.353339 L296.80572,636.353339 L296.794051,633.517745 Z M316.33511,637.581419 C316.33511,638.042306 316.112414,639.042742 315.974281,639.596421 C315.187818,639.669487 312.80014,639.863398 311.51465,639.863398 L311.51465,640.223117 L311.478004,639.863398 C310.381445,639.863398 308.396885,639.669487 307.703371,639.604846 C307.565239,639.065267 307.342542,638.115393 307.342542,637.66855 C307.342542,637.525224 307.365094,637.308831 307.407376,637.072769 C307.444022,636.850758 307.486311,636.597825 307.542687,636.353331 C307.593427,636.066678 307.658268,635.79127 307.709007,635.583317 C308.430666,635.482149 310.581568,635.187065 311.751448,635.187065 C312.963617,635.187065 315.230057,635.482149 315.965787,635.583317 C316.016527,635.791278 316.081368,636.072312 316.137744,636.353331 C316.19412,636.597825 316.239223,636.850758 316.273055,637.072769 C316.312522,637.272298 316.335074,637.452158 316.335074,637.581434 L316.33511,637.581419 Z M306.449115,637.581419 C306.449115,638.042306 306.226419,639.042742 306.088286,639.596421 C305.310266,639.669487 302.914145,639.863398 301.628655,639.863398 L301.628655,640.223117 L301.592009,639.863398 C300.49545,639.863398 298.51089,639.669487 297.817376,639.604846 C297.679244,639.065267 297.456547,638.115393 297.456547,637.66855 C297.456547,637.525224 297.479099,637.308831 297.521381,637.072769 C297.558027,636.850758 297.600316,636.597825 297.659514,636.353331 C297.710253,636.066678 297.775094,635.79127 297.825834,635.583317 C298.547492,635.482149 300.698394,635.187065 301.873903,635.187065 C303.080444,635.187065 305.344069,635.482149 306.079799,635.583317 C306.130539,635.791278 306.19538,636.072312 306.251756,636.353331 C306.308132,636.597825 306.353236,636.850758 306.389889,637.072769 C306.426534,637.272298 306.449086,637.452158 306.449086,637.581434 L306.449115,637.581419 Z M322.556525,651.042825 L291.451608,651.042825 L291.451608,646.481731 L322.556525,646.481731 L322.556525,651.042825 Z M291.243056,645.517756 L295.998639,637.072992 L296.793618,637.072992 C296.756972,637.303436 296.737235,637.511404 296.737235,637.668773 C296.737235,638.396629 297.171355,639.964788 297.185449,640.029394 L297.25029,640.265456 L297.495538,640.293557 C297.611119,640.301989 300.215829,640.574584 301.59434,640.58021 L301.630986,640.58021 C303.203984,640.58021 306.279475,640.299183 306.409157,640.293557 L306.662863,640.271074 L306.727697,640.026581 C306.736155,639.998479 306.815082,639.709013 306.899653,639.329625 C306.987039,639.711826 307.065974,639.998479 307.07161,640.026581 L307.136451,640.262643 L307.381699,640.290751 C307.49728,640.299176 310.10199,640.571778 311.480501,640.577404 L311.517147,640.577404 C313.090145,640.577404 316.162821,640.296377 316.295318,640.290751 L316.549024,640.268269 L316.613858,640.023775 C316.627952,639.950709 317.059258,638.317915 317.059258,637.57034 C317.059258,637.432632 317.039528,637.261205 317.01134,637.067294 L317.950073,637.067294 L322.764904,645.512058 L291.243056,645.517756 Z" id="Fill-1"></path>
        </g>
    </g>
</svg>