<?xml version="1.0" encoding="UTF-8"?>
<svg fill="#7C827B" width="100pt" height="100pt" version="1.1" viewBox="0 0 100 100" xmlns="http://www.w3.org/2000/svg">
 <g>
  <path d="m93.75 18.75h-87.5c-3.4453 0-6.25 2.8047-6.25 6.25v56.25c0 3.4492 2.8047 6.25 6.25 6.25h87.5c3.4492 0 6.25-2.8008 6.25-6.25v-56.25c0-3.4453-2.8008-6.25-6.25-6.25zm0 44.07c-9.543 1.3828-17.051 8.8945-18.43 18.43h-50.641c-1.3789-9.543-8.8867-17.051-18.43-18.43v-19.391c9.543-1.3789 17.051-8.8867 18.43-18.43h50.633c1.3867 9.543 8.8945 17.051 18.438 18.43z"/>
  <path d="m56.25 31.25c-6.8945 0-12.5 5.6055-12.5 12.5v6.25h-3.125c-1.7266 0-3.125 1.3984-3.125 3.125s1.3984 3.125 3.125 3.125h3.125v9.375c0 1.7266-1.4062 3.125-3.125 3.125-1.7266 0-3.125 1.3984-3.125 3.125s1.3984 3.125 3.125 3.125h18.75c1.7266 0 3.125-1.3984 3.125-3.125s-1.3984-3.125-3.125-3.125h-9.9141c0.35156-0.97656 0.53906-2.0312 0.53906-3.125v-9.375h9.375c1.7266 0 3.125-1.3984 3.125-3.125s-1.3984-3.125-3.125-3.125h-9.375v-6.25c0-3.4453 2.8008-6.25 6.25-6.25 1.5391 0 3.0078 0.57031 4.125 1.6055 1.2812 1.1758 3.2578 1.0938 4.418-0.17578 1.1758-1.2695 1.0938-3.2422-0.16797-4.418-2.2812-2.0977-5.2578-3.2617-8.375-3.2617z"/>
 </g>
</svg>
