<svg width="15px" height="12px" viewBox="0 0 15 12" version="1.1" xmlns="http://www.w3.org/2000/svg" xmlns:xlink="http://www.w3.org/1999/xlink">
    <!-- Generator: Sketch 51.2 (57519) - http://www.bohemiancoding.com/sketch -->
    <desc>Created with Sketch.</desc>
    <defs></defs>
    <g id="Symbols" stroke="none" stroke-width="1" fill="none" fill-rule="evenodd">
        <g id="Property" transform="translate(-78.000000, -198.000000)" fill="#949494">
            <g id="Group">
                <g id="Group-8" transform="translate(13.000000, 197.000000)">
                    <g id="Group-6" transform="translate(65.000000, 0.000000)">
                        <g id="Group-5" transform="translate(0.000000, 1.000000)">
                            <path d="M9.21085394,6.75001648 C7.96091319,6.75001648 6.76265989,7.23805394 5.87900908,8.10727124 C4.99592849,8.97582924 4.49934659,10.1534386 4.50000065,11.3818972 C4.50000065,11.7231394 4.78169893,12 5.12890376,12 L14.3710962,12 C14.538148,12 14.6979917,11.9349706 14.8159068,11.819069 C14.9338253,11.7031739 14.9999994,11.5460818 14.9999994,11.3818972 C15.0006551,10.1534221 14.5040883,8.97508752 13.6203369,8.10661193 C12.7366022,7.23741111 11.5377452,6.75 10.2871503,6.75 L9.21085394,6.75001648 Z" id="Fill-1"></path>
                            <path d="M9.74902427,6 C11.4060059,6 12.75,4.1590323 12.75,2.65632825 C12.7245899,1.69942555 12.1475281,0.825606253 11.2294326,0.353837904 C10.3120046,-0.117945968 9.18792688,-0.117945968 8.27056741,0.353837904 C7.35247185,0.825621777 6.77540327,1.69944108 6.75,2.65632825 C6.75,4.15898573 8.09202553,6 9.74909274,6 L9.74902427,6 Z" id="Fill-2"></path>
                            <path d="M0.597844598,11.2499391 L4.09452724,11.2499391 C4.08379279,11.1940469 4.07842557,11.137561 4.07909712,11.0804769 C4.07909712,9.36865381 5.09282421,7.78225689 6.75,6.90229522 C6.34610988,6.79883541 5.92813617,6.74770448 5.50815124,6.75007905 L4.47764405,6.75007905 C3.29013909,6.75126938 2.1523063,7.1698608 1.31295647,7.91369556 C0.473660581,8.65753031 0.0013447857,9.66661696 5.29810459e-06,10.7184307 C-0.000665562076,10.8593494 0.0623990734,10.9943225 0.174435815,11.094222 C0.286475992,11.1935187 0.438778084,11.25 0.597767997,11.25 L0.597844598,11.2499391 Z" id="Fill-3"></path>
                            <path d="M4.81646043,5.99985132 C5.58767208,5.99985132 6.28079272,5.4578015 6.75,4.72602102 L6.7493844,4.72602102 C6.36377858,4.03942237 6.15343668,3.25988296 6.13868441,2.46296465 C6.13745479,1.85701598 6.28567026,1.26076448 6.56857854,0.731682745 C6.08025785,0.248988796 5.4308115,-0.0136440256 4.75989011,0.000546538801 C4.08830748,0.0147437112 3.44992926,0.305139818 2.98001349,0.808467079 C2.51075898,1.31181086 2.24877625,1.98872887 2.2500043,2.69272293 C2.2500043,4.177578 3.40068155,6 4.81645886,6 L4.81646043,5.99985132 Z" id="Fill-4"></path>
                        </g>
                    </g>
                </g>
            </g>
        </g>
    </g>
</svg>