<?xml version="1.0" encoding="UTF-8"?>
<svg fill="#7C827B" width="100pt" height="100pt" version="1.1" viewBox="0 0 100 100" xmlns="http://www.w3.org/2000/svg">
 <g>
  <path d="m60.66 55.488c-7.4531 0-14.598 2.9609-19.867 8.2344-5.2656 5.2695-8.2266 12.414-8.2227 19.867 0 2.0703 1.6797 3.75 3.75 3.75h55.109c0.99609 0 1.9492-0.39453 2.6523-1.0977 0.70312-0.70313 1.0977-1.6562 1.0977-2.6523 0.003906-7.4531-2.957-14.602-8.2266-19.871-5.2695-5.2734-12.418-8.2305-19.875-8.2305z"/>
  <path d="m63.219 51.73c9.6797 0 17.531-11.859 17.531-21.539-0.14844-6.1641-3.5195-11.793-8.8828-14.832-5.3594-3.0391-11.926-3.0391-17.285 0-5.3633 3.0391-8.7344 8.668-8.8828 14.832 0 9.6797 7.8398 21.539 17.52 21.539z"/>
  <path d="m8.3008 84.691h20.359c-0.0625-0.36719-0.09375-0.73828-0.089844-1.1133 0-11.246 5.9023-21.668 15.551-27.449-2.3516-0.67969-4.7852-1.0156-7.2305-1h-6c-6.9141 0.007813-13.539 2.7578-18.426 7.6445-4.8867 4.8867-7.6367 11.516-7.6445 18.426-0.003906 0.92578 0.36328 1.8125 1.0156 2.4688 0.65234 0.65234 1.5391 1.0234 2.4648 1.0234z"/>
  <path d="m33.301 51.609c4.8984 0 9.3008-3.2812 12.281-7.7109h-0.003906c-2.4492-4.1562-3.7852-8.875-3.8789-13.699-0.007813-3.668 0.93359-7.2773 2.7305-10.48-3.1016-2.9219-7.2266-4.5117-11.488-4.4258-4.2656 0.085937-8.3203 1.8438-11.305 4.8906-2.9805 3.0469-4.6445 7.1445-4.6367 11.406 0 8.9883 7.3086 20.02 16.301 20.02z"/>
 </g>
</svg>

