<svg width="30px" height="24px" viewBox="0 0 30 24" version="1.1" xmlns="http://www.w3.org/2000/svg" xmlns:xlink="http://www.w3.org/1999/xlink">
    <!-- Generator: Sketch 51.3 (57544) - http://www.bohemiancoding.com/sketch -->
    <desc>Created with Sketch.</desc>
    <defs></defs>
    <g id="Page-1" stroke="none" stroke-width="1" fill="none" fill-rule="evenodd">
        <g id="Desktop" transform="translate(-431.000000, -631.000000)" fill="#FFFFFF">
            <path d="M460.977219,646.1223 L455.453297,636.617804 L455.453297,631 L453.99393,631 L453.99393,632.798595 L437.866467,632.798595 L437.866467,631 L436.4071,631 L436.4071,636.747087 L431.045605,646.122084 L431.008552,646.122084 L431.008552,646.186718 L431,646.200769 L431.008552,646.200769 L431.008552,654.991583 L432.467919,654.991583 L432.467919,651.762529 L459.540633,651.762529 L459.540633,655 L461,655 L461,646.122135 L460.977219,646.1223 Z M437.869605,633.517745 L453.997068,633.517745 L453.997068,636.353339 L452.566231,636.353339 C452.440813,635.757557 452.295453,635.209576 452.286901,635.173028 L452.221339,634.928535 L451.964812,634.900433 C451.782391,634.886383 447.432821,634.467648 445.907856,634.467648 C444.448489,634.467648 440.215741,634.88357 440.041858,634.900433 L439.78533,634.928535 L439.719775,635.173028 C439.705525,635.21518 439.574408,635.754759 439.448997,636.353339 L437.864198,636.353339 L437.869605,633.517745 Z M452.01014,637.581419 C452.01014,638.042306 451.782114,639.028713 451.645298,639.588004 C450.636292,639.652638 447.039171,639.860606 445.673861,639.860606 L445.673861,640.220325 L445.636807,639.860606 C444.476757,639.860606 441.295775,639.652645 440.360831,639.59363 C440.221163,639.054051 439.99599,638.104177 439.99599,637.665752 C439.99599,637.522425 440.018792,637.306033 440.061544,637.069964 C440.098598,636.847952 440.149902,636.595019 440.201213,636.350526 C440.258216,636.069499 440.318079,635.796896 440.369383,635.588928 C441.324247,635.501812 444.690496,635.187057 445.921836,635.187057 C447.190245,635.187057 450.664779,635.504625 451.642408,635.588928 C451.693712,635.796889 451.759275,636.072304 451.816277,636.350526 C451.867581,636.595019 451.918885,636.847952 451.947394,637.069964 C451.987301,637.272306 452.010103,637.452165 452.010103,637.581441 L452.01014,637.581419 Z M459.540473,651.042825 L432.467758,651.042825 L432.467758,646.481731 L459.540473,646.481731 L459.540473,651.042825 Z M432.25688,645.517756 L437.065348,637.072992 L439.328534,637.072992 C439.29148,637.303436 439.271523,637.511404 439.271523,637.668773 C439.271523,638.396629 439.710472,639.964788 439.724723,640.029394 L439.798829,640.273887 L440.055357,640.29637 C440.223527,640.31042 444.251036,640.577397 445.644878,640.583023 L445.681938,640.583023 C447.295195,640.583023 451.775962,640.31042 451.964075,640.29637 L452.226308,640.282319 L452.291863,640.029394 C452.306114,639.956327 452.745062,638.323534 452.745062,637.575966 C452.745062,637.438258 452.72226,637.266831 452.693758,637.07292 L454.882808,637.07292 L459.751183,645.517756 L432.25688,645.517756 Z" id="Fill-1"></path>
        </g>
    </g>
</svg>