<svg width="39px" height="31px" viewBox="0 0 39 31" version="1.1" xmlns="http://www.w3.org/2000/svg" xmlns:xlink="http://www.w3.org/1999/xlink">
    <!-- Generator: Sketch 51.3 (57544) - http://www.bohemiancoding.com/sketch -->
    <desc>Created with Sketch.</desc>
    <defs></defs>
    <g id="Page-1" stroke="none" stroke-width="1" fill="none" fill-rule="evenodd">
        <g id="Desktop" transform="translate(-287.000000, -743.000000)" fill="#FFFFFF">
            <g id="Group-9" transform="translate(287.000000, 743.000000)">
                <path d="M32.8055712,21.8823529 L27.9633389,21.8823529 C27.5473228,21.8823529 27.2108293,21.5226842 27.2108293,21.0779971 L27.2093023,3.38710759 C27.2093023,1.41712848 28.830532,-0.168690057 30.6766257,0.0144129519 C30.6903885,0.0144129519 30.7026242,0.0160493697 30.71486,0.0176857874 C31.439844,0.102695806 32.1173728,0.447632577 32.625167,0.990412673 C33.2247001,1.61819442 33.5581395,2.47160092 33.5581395,3.38548373 L33.5581395,21.074695 C33.5581395,21.521006 33.2216539,21.8823153 32.8056299,21.8823153 L32.8055712,21.8823529 Z M28.7158603,20.2720091 L32.0531791,20.2720091 L32.0531791,3.38719129 C32.0531791,2.90819382 31.8803474,2.46351509 31.5668024,2.13489227 C31.2960845,1.84552256 30.9550139,1.6705849 30.5741584,1.62153422 C30.5634536,1.62153422 30.5527488,1.61990198 30.54204,1.61826556 C30.490039,1.61172408 30.436507,1.61499691 30.384506,1.6133605 C29.4652767,1.6133605 28.7158603,2.4095133 28.7158603,3.38717874 L28.7158603,20.2720091 Z" id="Fill-1"></path>
                <path d="M38.2043573,9.11764706 L28.0049451,9.11764706 C27.5650833,9.11764706 27.2093023,8.70995032 27.2093023,8.20588235 C27.2093023,7.70181438 27.565075,7.29411765 28.0049451,7.29411765 L38.2043573,7.29411765 C38.6442191,7.29411765 39,7.70181438 39,8.20588235 C39,8.70995032 38.6442273,9.11764706 38.2043573,9.11764706 Z" id="Fill-2"></path>
                <path d="M6.44997118,9.11764706 L0.805842774,9.11764706 C0.360341995,9.11764706 0,8.70995032 0,8.20588235 C0,7.70181438 0.360333609,7.29411765 0.805842774,7.29411765 L6.44997118,7.29411765 C6.89547196,7.29411765 7.25581395,7.70181438 7.25581395,8.20588235 C7.25581395,8.70995032 6.89548034,9.11764706 6.44997118,9.11764706 Z" id="Fill-3"></path>
                <path d="M30.0591217,1.82352941 C30.0306524,1.82352941 29.9927014,1.82168572 29.9642321,1.81800305 C29.9373458,1.81432038 29.9104636,1.81247669 29.8851602,1.81247669 L29.8013434,1.81247669 C29.3711868,1.81247669 29.0232558,1.40725107 29.0232558,0.906238345 C29.0232558,0.405225615 29.3711787,0 29.8013434,0 L30.0591217,0 C30.4892783,0 30.8372093,0.405225615 30.8372093,0.906238345 L30.8372093,0.917291067 C30.8372093,1.41829437 30.4892864,1.82352941 30.0591217,1.82352941 Z" id="Fill-4"></path>
                <path d="M38.0930233,10.0294118 C37.5916117,10.0294118 37.1860465,9.6946271 37.1860465,9.28070613 L37.1860465,5.30752917 C37.1860465,4.89361599 37.5916023,4.55882353 38.0930233,4.55882353 C38.5944442,4.55882353 39,4.8936082 39,5.30752917 L39,9.28070613 C39,9.69461931 38.5944442,10.0294118 38.0930233,10.0294118 Z" id="Fill-5"></path>
                <path d="M0.906973615,10.0294118 C0.40556383,10.0294118 0,9.6946271 0,9.28070613 L0,5.30752917 C0,4.89361599 0.405554392,4.55882353 0.906973615,4.55882353 C1.40839284,4.55882353 1.81394723,4.8936082 1.81394723,5.30752917 L1.81394723,9.28070613 C1.81579053,9.69461931 1.41023803,10.0294118 0.906973615,10.0294118 Z" id="Fill-6"></path>
                <path d="M28.3354443,25.5294118 L7.15867142,25.5294118 C6.71187301,25.5294118 6.35048143,25.1719046 6.35048143,24.7298899 L6.34883721,4.58272159 C6.34883721,2.05581822 8.42677572,0 10.9829252,0 L30.9359961,0 C31.3827945,0 31.744186,0.357507196 31.744186,0.799521842 C31.744186,1.24153649 31.3828029,1.59904368 30.9359961,1.59904368 C29.9487503,1.59904368 29.1438824,2.39041181 29.1438824,3.36220172 L29.1438824,24.7278515 C29.1438824,25.1698578 28.7824992,25.5289958 28.3356924,25.5289958 L28.3354443,25.5294118 Z M7.96648295,23.9287457 L27.5272122,23.9287457 L27.525568,3.36224332 C27.525568,2.71547886 27.7111881,2.11260303 28.033131,1.59908529 L10.9824626,1.59908529 C9.32012023,1.59908529 7.96656284,2.93812525 7.96656284,4.58263838 L7.96648295,23.9287457 Z" id="Fill-7"></path>
                <path d="M28.2192759,31 L7.15281717,31 C6.70834623,31 6.34883721,30.6394097 6.34883721,30.1935832 L6.34883721,25.4240638 C6.34883721,24.9782457 6.70833786,24.6176471 7.15281717,24.6176471 L28.2192759,24.6176471 C28.6637468,24.6176471 29.0232558,24.9782373 29.0232558,25.4240638 L29.0232558,30.1935832 C29.0232558,30.6394013 28.6637552,31 28.2192759,31 Z M7.95642064,29.3871665 L27.4152541,29.3871665 L27.4152541,26.2303967 L7.95642064,26.2303967 L7.95642064,29.3871665 Z" id="Fill-8"></path>
            </g>
        </g>
    </g>
</svg>