<svg width="8px" height="13px" viewBox="0 0 8 13" version="1.1" xmlns="http://www.w3.org/2000/svg" xmlns:xlink="http://www.w3.org/1999/xlink">
    <g id="Page-1" stroke="none" stroke-width="1" fill="none" fill-rule="evenodd">
        <g id="Desktop" transform="translate(-743.000000, -523.000000)" fill="#949494">
            <g id="Group" transform="translate(428.000000, 65.000000)">
                <g id="Group-5" transform="translate(315.000000, 458.000000)">
                    <path d="M5,0.999786073 C5,1.55217904 4.55217904,2 3.99978607,2 C3.44783193,2 3,1.55217904 3,0.999786073 C3,0.44783193 3.44782096,0 3.99978607,0 C4.55217904,0 5,0.447820959 5,0.999786073" id="Fill-1"></path>
                    <path d="M7.98788164,12.1609379 L7.98788164,12.1603881 C7.97318176,12.0861666 6.75701988,8.79400307 6.75701988,8.79400307 L4.91895575,6.9747085 L4.91895575,3.28122807 C4.91895575,2.44224981 3.35401761,1.8940969 3.17077569,2.01725044 C3.05091289,2.09751981 0.297959184,3.75899346 0.297959184,3.75899346 L0.00621951458,6.58547292 C0.00282678892,6.61131265 0,6.63770269 0,6.66464306 C0,6.98351926 0.265729737,7.24193059 0.593669094,7.24193059 C0.921608452,7.24193059 1.18733819,6.98353333 1.18733819,6.66464306 L1.43271736,4.51220055 L2.80040266,3.73754363 L2.80040266,6.96374432 L5.3102091,9.3174549 L6.59139726,12.5442193 C6.69599569,12.8108643 6.96060223,13 7.270999,13 C7.67298778,13 7.99921919,12.6827705 7.99921919,12.2918741 C8.00091556,12.2473404 8.00091556,12.2275486 7.98791204,12.1610231 L7.98788164,12.1609379 Z" id="Fill-2"></path>
                    <path d="M0.163758928,11.9629854 C0.0616733192,12.0728921 0,12.2150334 0,12.3708563 C0,12.7181533 0.306787672,13 0.684817488,13 C0.926733158,13 1.13834982,12.8847203 1.26064838,12.7108255 L3.35558119,10.2211105 L4,8.91197832 L2.94086861,8 L2.15768143,9.46781867 L0.163758928,11.9629854 Z" id="Fill-3"></path>
                    <path d="M5.00962048,6 C5.00962048,6 4.9879744,7.27214294 5.00962048,7.24569857 C5.02904711,7.22284163 5.81831491,7.74152486 6.02146184,7.8760423 C6.03644813,7.88703191 6.05198858,7.89758152 6.0680846,7.90725116 C6.06863876,7.90725116 6.06863876,7.90769115 6.06863876,7.90769115 C6.16577047,7.96571347 6.28620788,8 6.4172012,8 C6.73912166,8 7,7.79340759 7,7.53845011 C7,7.36658422 6.88233051,7.26063795 6.7052771,7.13756473 L5.00962048,6 Z" id="Fill-4"></path>
                </g>
            </g>
        </g>
    </g>
</svg>