<?xml version="1.0" standalone="no"?>
<!DOCTYPE svg PUBLIC "-//W3C//DTD SVG 20010904//EN"
 "http://www.w3.org/TR/2001/REC-SVG-20010904/DTD/svg10.dtd">
<svg version="1.0" xmlns="http://www.w3.org/2000/svg"
 width="260.000000pt" height="260.000000pt" viewBox="0 0 260.000000 260.000000"
 preserveAspectRatio="xMidYMid meet">
<metadata>
Created by potrace 1.11, written by Peter Selinger 2001-2013
</metadata>
<g transform="translate(0.000000,260.000000) scale(0.100000,-0.100000)"
fill="#000000" stroke="none">
<path d="M1218 2410 c-30 -20 -823 -615 -888 -667 -8 -7 -65 -51 -127 -98 -95
-73 -114 -92 -124 -125 -41 -135 114 -234 222 -143 16 14 33 23 36 19 3 -3 6
-243 7 -533 l1 -528 23 -33 c48 -67 -6 -63 939 -64 l855 0 37 30 c20 16 41 44
47 62 7 22 10 201 10 551 -1 286 1 519 4 519 3 0 23 -12 44 -26 50 -34 103
-41 148 -20 41 20 78 80 78 126 0 70 28 46 -700 594 -151 114 -282 212 -290
219 -37 30 -168 125 -187 136 -33 17 -92 9 -135 -19z m425 -539 l342 -258 0
-549 -1 -549 -682 0 c-466 -1 -682 2 -683 10 -5 62 0 1087 5 1093 9 9 670 511
674 511 2 1 157 -115 345 -258z"/>
<path d="M988 1607 c-35 -10 -74 -46 -89 -84 -5 -13 -9 -160 -9 -325 0 -289 1
-302 22 -339 37 -67 48 -69 388 -69 329 0 344 2 385 58 19 25 20 45 23 342 3
353 1 365 -67 404 -32 19 -54 20 -328 21 -161 0 -307 -4 -325 -8z m447 -407
l0 -135 -120 -1 c-66 -1 -127 0 -136 2 -13 3 -15 25 -15 139 l0 136 136 -3
135 -3 0 -135z"/>
</g>
</svg>
