<?xml version="1.0" encoding="utf-8"?>
<!-- Generator: Adobe Illustrator 22.1.0, SVG Export Plug-In . SVG Version: 6.00 Build 0)  -->
<svg version="1.1" id="Layer_1" xmlns="http://www.w3.org/2000/svg" xmlns:xlink="http://www.w3.org/1999/xlink" x="0px" y="0px"
	 viewBox="0 0 50 50" style="enable-background:new 0 0 50 50;" xml:space="preserve">
<style type="text/css">
	.st0{fill:#FFFFFF;}
</style>
<g>
	<path class="st0" d="M34.6,43.4H15.4C6.9,43.4,0,35.9,0,26.8v-1.1h50v1.1C50,35.8,43.1,43.4,34.6,43.4z M2.1,27.7
		c0.5,7.6,6.3,13.5,13.3,13.5h19.1c7,0,12.8-6,13.3-13.4H2.1V27.7z"/>
	<path class="st0" d="M37.1,41.5l6.4,7l-1.6,1.4l-6.4-7L37.1,41.5z"/>
	<path class="st0" d="M12.9,41.6l1.6,1.4l-6.4,7l-1.6-1.4L12.9,41.6z"/>
	<path class="st0" d="M2.1,26.7H0V8.2c0-4.4,3.3-8,7.4-8s7.4,3.6,7.4,8h-2.1c0-3.2-2.3-5.9-5.3-5.9S2.1,5,2.1,8.2L2.1,26.7z"/>
	<path class="st0" d="M9.6,6.9h8.5V9H9.6V6.9z"/>
</g>
</svg>
