<?xml version="1.0" encoding="utf-8"?>
<!-- Generator: Adobe Illustrator 22.1.0, SVG Export Plug-In . SVG Version: 6.00 Build 0)  -->
<svg version="1.1" id="Layer_1" xmlns="http://www.w3.org/2000/svg" xmlns:xlink="http://www.w3.org/1999/xlink" x="0px" y="0px"
	 viewBox="0 0 50 50" style="enable-background:new 0 0 50 50;" xml:space="preserve">
<style type="text/css">
	.st0{fill:#FFFFFF;}
</style>
<path class="st0" d="M48.5,29.4L41,16.2V8.4h-2v2.5H10.9V8.4h-2v8l-7.4,13l0,0v0.1l0,0l0,0v12.2h2v-4.5h43.1v4.5h2L48.5,29.4
	L48.5,29.4z M10.9,11.9H39v3.9h-0.3c-0.2-0.8-0.4-1.6-0.4-1.6l-0.1-0.3h-0.3c-0.2,0-4.2-0.6-6.3-0.6c-2,0-5.9,0.6-6.1,0.6h-0.3
	l-0.1,0.3c0,0-0.1,0.5-0.2,1c-0.1-0.6-0.2-1-0.2-1l-0.1-0.3h-0.3c-0.2,0-4.2-0.6-6.3-0.6c-2,0-5.9,0.6-6.1,0.6h-0.3l-0.2,0.3
	c0,0.1-0.2,0.8-0.4,1.6h-0.1V11.9L10.9,11.9z M38,17.5c0,0.6-0.3,2-0.5,2.8c-1.1,0.1-4.4,0.4-6.2,0.4v0.5v-0.5
	c-1.5,0-4.3-0.3-5.2-0.4c-0.3-0.8-0.6-2.1-0.6-2.7c0-0.2,0-0.5,0.1-0.8c0-0.3,0.1-0.7,0.2-1c0.1-0.4,0.2-0.8,0.2-1.1
	c1-0.1,4-0.5,5.6-0.5c1.7,0,4.8,0.4,5.8,0.5c0.1,0.3,0.2,0.6,0.3,1c0.1,0.3,0.1,0.7,0.2,1C38,17,38,17.4,38,17.5z M24.2,17.5
	c0,0.6-0.3,2-0.5,2.8c-1.1,0.1-4.4,0.4-6.2,0.4v0.5v-0.5c-1.5,0-4.3-0.3-5.2-0.4c-0.2-0.8-0.5-2.1-0.5-2.7c0-0.2,0-0.5,0.1-0.8
	c0-0.3,0.1-0.7,0.2-1c0.1-0.4,0.2-0.8,0.2-1.1c1-0.1,4-0.5,5.6-0.5c1.7,0,4.8,0.4,5.8,0.5c0.1,0.3,0.2,0.7,0.2,1.1
	c0.1,0.3,0.1,0.7,0.2,1C24.2,17,24.2,17.4,24.2,17.5z M46.5,36.2h-43v-6.3h43.1L46.5,36.2L46.5,36.2z M3.2,28.6l6.6-11.8h1.1
	c0,0.3-0.1,0.6-0.1,0.8c0,1,0.6,3.2,0.6,3.3l0.1,0.3h0.3c0.2,0,3.8,0.4,5.7,0.4l0,0c2.2,0,6.4-0.4,6.6-0.4h0.3l0.1-0.3
	c0,0,0.1-0.4,0.2-1c0.1,0.5,0.2,0.9,0.2,1l0.1,0.3h0.3c0.2,0,3.8,0.4,5.7,0.4l0,0c2.2,0,6.4-0.4,6.6-0.4H38l0.1-0.3
	c0-0.1,0.6-2.4,0.6-3.4c0-0.2,0-0.4-0.1-0.7h1.3l6.7,11.7C46.9,28.6,3.2,28.6,3.2,28.6z"/>
</svg>
