<?xml version="1.0" encoding="utf-8"?>
<!-- Generator: Adobe Illustrator 22.1.0, SVG Export Plug-In . SVG Version: 6.00 Build 0)  -->
<svg version="1.1" id="Layer_1" xmlns="http://www.w3.org/2000/svg" xmlns:xlink="http://www.w3.org/1999/xlink" x="0px" y="0px"
	 viewBox="0 0 50 50" style="enable-background:new 0 0 50 50;" xml:space="preserve">
<style type="text/css">
	.st0{fill:#FFFFFF;}
</style>
<path class="st0" d="M45.5,29.4l-7.6-13.2V8.4h-2v2.5H13.8V8.4h-2v8l-7.3,13l0,0v0.1l0,0l0,0v12.2h2v-4.5h37.1v4.5h2L45.5,29.4
	L45.5,29.4z M13.8,11.9h22.1v3.9h-2c-0.2-0.8-0.4-1.6-0.4-1.6l-0.1-0.3H33c-0.2,0-6.2-0.6-8.3-0.6c-2,0-7.8,0.6-8,0.6h-0.3l-0.1,0.3
	c0,0.1-0.2,0.8-0.4,1.6h-2.1L13.8,11.9L13.8,11.9z M33.2,17.5c0,0.6-0.3,2-0.5,2.8c-1.4,0.1-6.3,0.4-8.2,0.4v0.5v-0.5
	c-1.6,0-6-0.3-7.2-0.4c-0.2-0.8-0.5-2.1-0.5-2.7c0-0.2,0-0.5,0.1-0.8c0-0.3,0.1-0.7,0.2-1c0.1-0.4,0.2-0.8,0.2-1.1
	c1.3-0.1,5.9-0.6,7.6-0.6s6.5,0.4,7.8,0.6c0.1,0.3,0.2,0.7,0.2,1.1c0.1,0.3,0.1,0.7,0.2,1C33.2,17,33.2,17.4,33.2,17.5z M43.5,36.2
	H6.4v-6.3h37.1V36.2z M6.1,28.6l6.6-11.8h3.1c0,0.3-0.1,0.6-0.1,0.8c0,1,0.6,3.2,0.6,3.3l0.1,0.3h0.3c0.2,0,5.8,0.4,7.7,0.4l0,0
	c2.2,0,8.4-0.4,8.6-0.4h0.4l0.1-0.3c0-0.1,0.6-2.4,0.6-3.4c0-0.2,0-0.4-0.1-0.7h3l6.7,11.7H6.1V28.6z"/>
</svg>
