<svg width="9px" height="12px" viewBox="0 0 9 12" version="1.1" xmlns="http://www.w3.org/2000/svg" xmlns:xlink="http://www.w3.org/1999/xlink">
    <!-- Generator: Sketch 51.3 (57544) - http://www.bohemiancoding.com/sketch -->
    <desc>Created with Sketch.</desc>
    <defs></defs>
    <g id="Page-1" stroke="none" stroke-width="1" fill="none" fill-rule="evenodd">
        <g id="Desktop" transform="translate(-277.000000, -565.000000)" fill="#616161">
            <path d="M281.500012,565 C283.985692,565 286,567.048797 286,569.576823 C286,571.399205 283.661338,575.031271 282.355632,576.597317 C282.142928,576.853175 281.829687,577.000489 281.5,576.999999 C281.170313,577.00049 280.857072,576.853162 280.644368,576.597317 C279.338662,575.031271 277,571.398702 277,569.57632 C277,567.048797 279.014308,565 281.499988,565 L281.500012,565 Z M281.711739,576.043412 C283.116075,574.358564 285.156495,571.001565 285.156495,569.576446 C285.156495,567.525764 283.515793,565.857007 281.5,565.857007 C279.484207,565.857007 277.843505,567.525638 277.843505,569.576446 C277.843505,571.001565 279.883925,574.358061 281.288261,576.043035 L281.288261,576.043526 C281.340469,576.106875 281.418299,576.143705 281.499988,576.143215 C281.581684,576.143706 281.659516,576.106875 281.711715,576.043526 L281.711739,576.043412 Z M281.500012,567.299223 C282.022097,567.299223 282.522895,567.509898 282.89222,567.884583 C283.261545,568.25977 283.468929,568.768518 283.468929,569.29889 C283.468929,569.829752 283.261545,570.3385 282.89222,570.713197 C282.522895,571.088384 282.022097,571.299059 281.500012,571.299059 C280.796657,571.299059 280.14691,570.917988 279.795083,570.299226 C279.443653,569.680464 279.443653,568.917857 279.795083,568.299082 C280.147009,567.680319 280.796706,567.299248 281.500012,567.299248 L281.500012,567.299223 Z M281.500012,570.442128 C282.120219,570.442128 282.624892,569.929444 282.624892,569.299393 C282.624892,568.669341 282.120219,568.156658 281.500012,568.156658 C280.879805,568.156658 280.375133,568.669341 280.375133,569.299393 C280.375133,569.929444 280.879805,570.442128 281.500012,570.442128 Z" id="Fill-1"></path>
        </g>
    </g>
</svg>