<?xml version="1.0" encoding="utf-8"?>
<!-- Generator: Adobe Illustrator 22.1.0, SVG Export Plug-In . SVG Version: 6.00 Build 0)  -->
<svg version="1.1" id="Layer_1" xmlns="http://www.w3.org/2000/svg" xmlns:xlink="http://www.w3.org/1999/xlink" x="0px" y="0px"
	 viewBox="0 0 38 44" style="enable-background:new 0 0 38 44;" xml:space="preserve">
<style type="text/css">
	.st0{fill:#236E55;}
</style>
<path class="st0" d="M27,37c0,1.1,0.9,2,2,2h2c1.1,0,2-0.9,2-2V21c0-1.1-0.6-2.6-1.4-3.4L20.4,6.4c-0.8-0.8-2.1-0.8-2.8,0L6.4,17.6
	C5.6,18.4,5,19.9,5,21v16c0,1.1,0.9,2,2,2h2c1.1,0,2-0.9,2-2v-7c0-2.8,2.2-5,5-5h6c2.8,0,5,2.2,5,5L27,37z M22,32c0-1.1-0.9-2-2-2
	h-2c-1.1,0-2,0.9-2,2v7c0,2.8-2.2,5-5,5H5c-2.8,0-5-2.2-5-5V21.9c0-2.8,1.6-6.6,3.5-8.5L15.5,1.5c1.9-1.9,5.1-1.9,7.1,0l11.9,11.9
	c1.9,1.9,3.5,5.8,3.5,8.5V39c0,2.8-2.2,5-5,5h-6c-2.8,0-5-2.2-5-5L22,32z"/>
</svg>
