<?xml version="1.0" encoding="utf-8"?>
<!-- Generator: Adobe Illustrator 22.1.0, SVG Export Plug-In . SVG Version: 6.00 Build 0)  -->
<svg version="1.1" id="Layer_1" xmlns="http://www.w3.org/2000/svg" xmlns:xlink="http://www.w3.org/1999/xlink" x="0px" y="0px"
	 viewBox="0 0 324.5 47.3" style="enable-background:new 0 0 324.5 47.3;" xml:space="preserve">
<style type="text/css">
	.st0{fill:#bee0c1;}
</style>
<g>
	<path class="st0" d="M24.6,29.3c0,5.9-5.2,9.1-11.7,9.1c-3.1,0-6.5-1.2-8.1-2.2l-0.6,1.4H1.9l-1.9-9l2.1-0.5
		c2.6,4.2,7.2,6.7,10.4,6.7c1.8,0,2.9-0.8,2.9-2.2c0-1.5-2.2-2.4-4.8-3.3c-4.2-1.5-9.7-3.4-9.7-8.7c0-5,5.1-8.3,10.9-8.3
		c3.6,0,5.6,1.2,7.1,2.2l0.7-1.4h2.3l1.6,8.2l-2.3,0.6c-2.2-3.8-5.8-6.2-8.3-6.2c-1.5,0-2.3,0.8-2.3,1.9c0,1.5,1.9,2.3,4.3,3.2
		C19.9,22.6,24.6,24.4,24.6,29.3z"/>
	<path class="st0" d="M42.7,35c2.2-0.3,2.6-0.7,2.6-2.1V20.8c0-2.3-1.4-3.1-3.1-3.1c-1.4,0-2.5,0.5-3.7,1.3v14
		c0,1.4,0.5,1.8,2.6,2.1v2.7H26.2V35c2.2-0.3,2.6-0.7,2.6-2.1V21c0-1.1-0.3-1.5-1.2-1.5h-1.5v-2.6l8.8-4.6h3.6v2.6
		c2.1-1.4,5.2-2.6,7.8-2.6c4.3,0,8.7,1.4,8.7,8.7v11.8c0,1.4,0.5,1.8,2.6,2.1v2.7H42.7V35z"/>
	<path class="st0" d="M66.7,38.3c-4.3,0-7.1-2.7-7.1-6.2c0-6.5,8.5-8.7,15.3-10.1v-2c0-3-0.3-3.9-2.3-3.9c-1.5,0-2.3,0.9-3.2,3.4
		c-0.8,2.4-2.6,3.5-4.8,3.5c-1.9,0-3.5-1.2-3.5-3.7c0-4.4,5.4-6.8,12.6-6.8c5.8,0,11,2.2,11,8.2v12.1c0,1.2,0.5,1.6,1.3,1.6
		c0.3,0,0.8-0.1,1.3-0.3v3.1c-1.6,0.9-3.4,1.4-6.1,1.4c-3.1,0-5.5-0.7-6.2-3.3C72.9,36.7,70,38.3,66.7,38.3z M74.9,25.7
		c-3.2,0.8-5.3,1.9-5.3,4.2c0,1.7,1.2,2.5,2.5,2.5c1.2,0,2.1-0.4,2.8-0.9V25.7z"/>
	<path class="st0" d="M88.6,44.7c2.2-0.3,2.6-0.7,2.6-2.1V21c0-1.1-0.3-1.5-1.2-1.5h-1.5v-2.6l8.8-4.6h3.6v2.3
		c1.8-1.5,4-2.3,6.7-2.3c6.4,0,11.3,4.8,11.3,13.1c0,8.2-5,13.1-12.7,13.1c-2.1,0-3.8-0.4-5.3-1.2v5.4c0,1.4,0.5,1.8,2.6,2.1v2.7
		H88.6V44.7z M101,32.2c0.8,1.3,1.9,1.8,3.4,1.8c3.2,0,4.7-2.3,4.7-8.6s-1.5-8.5-4.7-8.5c-1.5,0-2.6,0.5-3.4,1.8V32.2z"/>
	<path class="st0" d="M145.5,29.3c0,5.9-5.2,9.1-11.7,9.1c-3.1,0-6.5-1.2-8.1-2.2l-0.6,1.4h-2.3l-1.9-9l2.1-0.5
		c2.6,4.2,7.2,6.7,10.4,6.7c1.8,0,2.9-0.8,2.9-2.2c0-1.5-2.2-2.4-4.8-3.3c-4.2-1.5-9.7-3.4-9.7-8.7c0-5,5.1-8.3,10.9-8.3
		c3.6,0,5.6,1.2,7.1,2.2l0.7-1.4h2.3l1.6,8.2l-2.3,0.6c-2.2-3.8-5.8-6.2-8.3-6.2c-1.5,0-2.3,0.8-2.3,1.9c0,1.5,1.9,2.3,4.3,3.2
		C140.8,22.6,145.5,24.4,145.5,29.3z"/>
	<path class="st0" d="M146.9,44.7c2.2-0.3,2.6-0.7,2.6-2.1V21c0-1.1-0.3-1.5-1.2-1.5h-1.5v-2.6l8.8-4.6h3.6v2.3
		c1.8-1.5,4-2.3,6.7-2.3c6.4,0,11.3,4.8,11.3,13.1c0,8.2-4.9,13.1-12.7,13.1c-2.1,0-3.8-0.4-5.3-1.2v5.4c0,1.4,0.5,1.8,2.6,2.1v2.7
		h-15.1v-2.8H146.9z M159.3,32.2c0.8,1.3,1.9,1.8,3.4,1.8c3.2,0,4.7-2.3,4.7-8.6s-1.5-8.5-4.7-8.5c-1.5,0-2.6,0.5-3.4,1.8V32.2z"/>
	<path class="st0" d="M186.6,38.3c-4.3,0-7.1-2.7-7.1-6.2c0-6.5,8.5-8.7,15.3-10.1v-2c0-3-0.3-3.9-2.3-3.9c-1.5,0-2.3,0.9-3.2,3.4
		c-0.8,2.4-2.6,3.5-4.8,3.5c-1.9,0-3.5-1.2-3.5-3.7c0-4.4,5.4-6.8,12.6-6.8c5.8,0,11,2.2,11,8.2v12.1c0,1.2,0.5,1.6,1.3,1.6
		c0.3,0,0.8-0.1,1.3-0.3v3.1c-1.6,0.9-3.4,1.4-6.1,1.4c-3.1,0-5.5-0.7-6.2-3.3C192.8,36.7,189.8,38.3,186.6,38.3z M194.7,25.7
		c-3.2,0.8-5.3,1.9-5.3,4.2c0,1.7,1.2,2.5,2.5,2.5c1.2,0,2.1-0.4,2.8-0.9V25.7z"/>
	<path class="st0" d="M224.9,19.4c-0.4-2.2-0.8-3.4-2.5-3.4c-2.9,0-3.5,3.1-3.5,9.3c0,6.3,2,8.8,6,8.8c2.8,0,5-1.8,6.6-5.7l3.4,2
		c-2.3,4.9-5.6,7.9-11.8,7.9c-8.4,0-14.1-5.4-14.1-13.1s5.4-13.1,13.5-13.1c6.4,0,10.9,2.7,10.9,6.7c0,2.7-1.9,4.2-4.1,4.2
		C227.1,23.2,225.4,21.9,224.9,19.4z"/>
	<path class="st0" d="M245.9,25.4c0,6.3,1.7,8.8,5.7,8.8c2.8,0,5.7-1.9,7.6-5.7l3.4,2c-2.5,4.7-5.8,7.9-12.3,7.9
		c-8.8,0-14.3-5.4-14.3-13.1s5.7-13.1,13.5-13.1c8.3,0,12.5,4.8,12.5,12.3h-16.1L245.9,25.4L245.9,25.4z M252.7,20.6
		c0-2.8-1.2-4.5-3.1-4.5c-2.3,0-3.3,1.3-3.6,4.5H252.7z"/>
	<path class="st0" d="M276.7,32.8c0,2.8-2.1,5.7-6,5.7s-5.9-2.9-5.9-5.7s1.9-5.7,5.9-5.7C274.6,27,276.7,30,276.7,32.8z"/>
	<path class="st0" d="M278.9,35c2.2-0.3,2.6-0.7,2.6-2.1V21c0-1.1-0.3-1.5-1.2-1.5h-1.5v-2.6l8.8-4.6h3.6v20.6
		c0,1.4,0.5,1.8,2.6,2.1v2.7h-15.1V35H278.9z M292.1,5.1c0,2.5-1.9,5-5.5,5s-5.4-2.5-5.4-5S283,0,286.6,0
		C290.2,0,292.1,2.6,292.1,5.1z"/>
	<path class="st0" d="M324.5,25.4c0,7.7-5.5,13.1-14.3,13.1s-14.3-5.4-14.3-13.1s5.5-13.1,14.3-13.1S324.5,17.7,324.5,25.4z
		 M314.5,25.4c0-6.3-0.9-9.3-4.4-9.3s-4.4,3.1-4.4,9.3c0,6.3,0.9,9.4,4.4,9.4S314.5,31.6,314.5,25.4z"/>
</g>
</svg>
