<svg width="30px" height="30px" viewBox="0 0 30 30" version="1.1" xmlns="http://www.w3.org/2000/svg" xmlns:xlink="http://www.w3.org/1999/xlink">
    <!-- Generator: Sketch 51.3 (57544) - http://www.bohemiancoding.com/sketch -->
    <desc>Created with Sketch.</desc>
    <defs></defs>
    <g id="Page-1" stroke="none" stroke-width="1" fill="none" fill-rule="evenodd">
        <g id="Desktop" transform="translate(-758.000000, -893.000000)">
            <g id="Group-3" transform="translate(773.000000, 908.000000) scale(1, -1) translate(-773.000000, -908.000000) translate(758.000000, 893.000000)">
                <circle id="Oval-2" fill="#D8D8D8" cx="15" cy="15" r="15"></circle>
                <path d="M22.5175386,13.7899824 L17.5424452,8.51105441 C16.8979254,7.82964853 15.8780321,7.82964853 15.2342997,8.51105441 C14.5897798,9.1924603 14.5897798,10.2707223 15.2342997,10.9512957 L17.4356098,13.2785874 L7.62876498,13.2785874 C6.73399673,13.2785874 6,14.054591 6,15.0005676 C6,15.9465442 6.73399691,16.7225478 7.62876498,16.7225478 L17.4356098,16.7225478 L15.2518371,19.0490827 C14.6073173,19.7304886 14.6073173,20.8087506 15.2518371,21.489324 C15.5740971,21.8300269 15.9858339,22 16.3968548,22 C16.8085917,22 17.2377943,21.8300194 17.5418726,21.489324 L22.516966,16.2295047 C22.8210442,15.908024 22.999998,15.4727234 22.999998,15.0189574 C23.0006977,14.5651913 22.8217439,14.1114063 22.5176639,13.7899256 L22.5175386,13.7899824 Z" id="Fill-1" fill="#FFFFFF"></path>
            </g>
        </g>
    </g>
</svg>