<svg width="12px" height="12px" viewBox="0 0 12 12" version="1.1" xmlns="http://www.w3.org/2000/svg" xmlns:xlink="http://www.w3.org/1999/xlink">
    <!-- Generator: Sketch 51.3 (57544) - http://www.bohemiancoding.com/sketch -->
    <desc>Created with Sketch.</desc>
    <defs></defs>
    <g id="Page-1" stroke="none" stroke-width="1" fill="none" fill-rule="evenodd">
        <g id="Desktop" transform="translate(-853.000000, -651.000000)" fill="#39BF8F">
            <g id="Group-3" transform="translate(853.000000, 651.000000)">
                <path d="M10.9334222,10.3998226 C10.9334222,10.6961189 10.6961481,10.933393 10.3998518,10.933393 L1.60014763,10.933393 C1.30385132,10.933393 1.06657724,10.6961189 1.06657724,10.3998226 L1.06657724,1.60011858 C1.06657724,1.30382227 1.30385132,1.06654819 1.60014763,1.06654819 L5.06651818,1.06654819 L5.06651818,0 L1.60014763,0 C0.711258702,0 0,0.711229656 0,1.60014821 L0,10.3998522 C0,11.2887412 0.711229072,12 1.60014763,12 L10.3998518,12 C11.2887407,12 12,11.2887708 12,10.3998522 L12,6.93348174 L10.9334518,6.93348174 L10.9334222,10.3998226 Z" id="Fill-1"></path>
                <polygon id="Fill-2" points="6.94621421 2.95551943e-05 6.94621421 1.06389833 10.1822284 1.06389833 6 5.2461061 6.75389761 6 10.936126 1.81779223 10.936126 5.05379045 12 5.05379045 12 0"></polygon>
            </g>
        </g>
    </g>
</svg>